<svg width="109" height="80" viewBox="0 0 109 80" fill="none" xmlns="http://www.w3.org/2000/svg">
<path d="M95 40C95 62.0914 77.0914 80 55 80C32.9086 80 15 62.0914 15 40C15 17.9086 32.9086 0 55 0C77.0914 0 95 17.9086 95 40Z" fill="#112055"/>
<path d="M28.6477 33.3906C28.3991 32.5265 28.05 31.763 27.6001 31.1001C27.1503 30.4254 26.5999 29.8572 25.9489 29.3956C25.3097 28.9221 24.5758 28.5611 23.7472 28.3125C22.9304 28.0639 22.0249 27.9396 21.0305 27.9396C19.1721 27.9396 17.5386 28.4013 16.13 29.3246C14.7332 30.2479 13.6442 31.5914 12.8629 33.3551C12.0817 35.107 11.6911 37.2495 11.6911 39.7827C11.6911 42.3158 12.0758 44.4702 12.8452 46.2457C13.6146 48.0213 14.7036 49.3767 16.1122 50.3118C17.5208 51.2351 19.1839 51.6967 21.1016 51.6967C22.8416 51.6967 24.3272 51.389 25.5582 50.7734C26.8011 50.1461 27.7481 49.2642 28.3991 48.1278C29.062 46.9915 29.3935 45.648 29.3935 44.0973L30.956 44.3281H21.581V38.5398H36.7976V43.1207C36.7976 46.3168 36.1229 49.063 34.7734 51.3594C33.424 53.6439 31.5656 55.4077 29.1982 56.6506C26.8307 57.8816 24.12 58.4972 21.0661 58.4972C17.657 58.4972 14.6622 57.7455 12.0817 56.2422C9.50118 54.727 7.48887 52.5786 6.04474 49.7969C4.61245 47.0033 3.89631 43.6889 3.89631 39.8537C3.89631 36.9062 4.32244 34.2784 5.17472 31.9702C6.03883 29.6501 7.24621 27.6851 8.79688 26.0753C10.3475 24.4654 12.1527 23.2403 14.2124 22.3999C16.272 21.5594 18.5033 21.1392 20.9062 21.1392C22.9659 21.1392 24.8835 21.4411 26.6591 22.0447C28.4347 22.6366 30.009 23.477 31.3821 24.5661C32.767 25.6551 33.8975 26.9512 34.7734 28.4545C35.6494 29.946 36.2116 31.5914 36.4602 33.3906H28.6477ZM39.6252 27.9751V21.6364H69.4902V27.9751H58.3574V58H50.758V27.9751H39.6252ZM87.2992 58H74.4086V21.6364H87.4057C91.0634 21.6364 94.2121 22.3643 96.8517 23.8203C99.4914 25.2644 101.521 27.3419 102.942 30.0526C104.374 32.7633 105.09 36.0066 105.09 39.7827C105.09 43.5705 104.374 46.8258 102.942 49.5483C101.521 52.2708 99.4796 54.3601 96.8162 55.8161C94.1647 57.272 90.9924 58 87.2992 58ZM82.0968 51.4126H86.9796C89.2523 51.4126 91.164 51.0102 92.7147 50.2053C94.2772 49.3885 95.449 48.1278 96.2303 46.4233C97.0234 44.7069 97.4199 42.4934 97.4199 39.7827C97.4199 37.0956 97.0234 34.8999 96.2303 33.1953C95.449 31.4908 94.2831 30.236 92.7324 29.4311C91.1818 28.6262 89.2701 28.2237 86.9973 28.2237H82.0968V51.4126Z" fill="white"/>
</svg>
